<mxfile host="app.diagrams.net" modified="2023-08-25T13:42:22.537Z" agent="Mozilla/5.0 (Windows NT 10.0; Win64; x64) AppleWebKit/537.36 (KHTML, like Gecko) Chrome/116.0.0.0 Safari/537.36" etag="HKVM9GJPRFXVlFvqaqRI" version="21.6.9" type="github">
  <diagram name="Page-1" id="qUilC0vSFBUKwav31X2_">
    <mxGraphModel dx="1859" dy="1140" grid="1" gridSize="10" guides="1" tooltips="1" connect="1" arrows="1" fold="1" page="1" pageScale="1" pageWidth="827" pageHeight="1169" math="0" shadow="0">
      <root>
        <mxCell id="0" />
        <mxCell id="1" parent="0" />
        <mxCell id="ZjJyJiL3dWtTblCl84_8-4" value="" style="shape=mxgraph.cisco.people.running_man;html=1;pointerEvents=1;dashed=0;fillColor=#036897;strokeColor=#ffffff;strokeWidth=2;verticalLabelPosition=bottom;verticalAlign=top;align=center;outlineConnect=0;" vertex="1" parent="1">
          <mxGeometry x="-130" y="440" width="83" height="93" as="geometry" />
        </mxCell>
        <mxCell id="ZjJyJiL3dWtTblCl84_8-5" value="" style="shape=mxgraph.signs.people.man_1;html=1;pointerEvents=1;fillColor=#000000;strokeColor=none;verticalLabelPosition=bottom;verticalAlign=top;align=center;" vertex="1" parent="1">
          <mxGeometry x="-110" y="350" width="37" height="98" as="geometry" />
        </mxCell>
        <mxCell id="ZjJyJiL3dWtTblCl84_8-6" value="&lt;font style=&quot;font-size: 24px;&quot;&gt;&lt;b&gt;Visitor John&lt;/b&gt;&lt;/font&gt;" style="shape=mxgraph.signs.people.walking;html=1;pointerEvents=1;fillColor=#000000;strokeColor=none;verticalLabelPosition=bottom;verticalAlign=top;align=center;" vertex="1" parent="1">
          <mxGeometry x="180" y="190" width="55" height="99" as="geometry" />
        </mxCell>
        <mxCell id="ZjJyJiL3dWtTblCl84_8-7" value="" style="shape=mxgraph.signs.travel.customs;html=1;pointerEvents=1;fillColor=#000000;strokeColor=none;verticalLabelPosition=bottom;verticalAlign=top;align=center;" vertex="1" parent="1">
          <mxGeometry x="390" y="190" width="99" height="84" as="geometry" />
        </mxCell>
      </root>
    </mxGraphModel>
  </diagram>
</mxfile>
